Coordinates
version=1
nRows=8
nColumns=40
inDegrees=yes

Units are S.I. units (second, meters, Newtons, ...)
If the header above contains a line with 'inDegrees', this indicates whether rotational values are in degrees (yes) or radians (no).

endheader
time	pelvis_tilt	pelvis_list	pelvis_rotation	pelvis_tx	pelvis_ty	pelvis_tz	hip_flexion_r	hip_adduction_r	hip_rotation_r	knee_angle_r	knee_angle_r_beta	ankle_angle_r	subtalar_angle_r	mtp_angle_r	hip_flexion_l	hip_adduction_l	hip_rotation_l	knee_angle_l	knee_angle_l_beta	ankle_angle_l	subtalar_angle_l	mtp_angle_l	lumbar_extension	lumbar_bending	lumbar_rotation	arm_flex_r	arm_add_r	arm_rot_r	elbow_flex_r	pro_sup_r	wrist_flex_r	wrist_dev_r	arm_flex_l	arm_add_l	arm_rot_l	elbow_flex_l	pro_sup_l	wrist_flex_l	wrist_dev_l
      4.40000000	     -7.66071099	     -2.53984613	     -2.74802404	     -0.41105584	      0.90396631	     -1.04373648	     56.71988883	      2.82010001	     -8.37847867	      6.25370165	      0.10914768	      1.60287443	      0.00000000	      0.00000000	     46.74504384	     -2.18751694	     -2.62314236	     66.11428560	      1.15391197	     14.23005185	      0.00000000	      0.00000000	     -7.52664087	     -4.53379908	      6.48340386	     89.97005864	     -9.91058218	     14.97810287	     47.58753499	     40.85584044	      0.00000000	      0.00000000	     89.96112370	    -23.72178291	      7.11005792	     52.40456121	     61.97966520	      0.00000000	      0.00000000
      4.40500000	     -7.71187122	     -2.61753194	     -2.73162413	     -0.41124457	      0.90354853	     -1.04363697	     56.77282543	      2.86815994	     -8.39083351	      6.27137276	      0.10945610	      1.71066007	      0.00000000	      0.00000000	     46.87061696	     -2.19882007	     -2.46262723	     66.22024163	      1.15576125	     14.29846652	      0.00000000	      0.00000000	     -7.50486947	     -4.44613940	      6.49534774	     89.97001311	     -9.91889567	     14.95396483	     47.56679777	     41.09947358	      0.00000000	      0.00000000	     89.96132621	    -23.66494400	      7.17121992	     52.47456257	     60.63273028	      0.00000000	      0.00000000
      4.41000000	     -7.73844028	     -2.64843000	     -2.73593924	     -0.41140042	      0.90323758	     -1.04359598	     56.80762476	      2.89264751	     -8.41940516	      6.28603963	      0.10971209	      1.67135390	      0.00000000	      0.00000000	     46.94813353	     -2.21106354	     -2.41527702	     66.31271882	      1.15737528	     14.31374738	      0.00000000	      0.00000000	     -7.52473306	     -4.33436002	      6.41902664	     89.97016455	     -9.66180773	     15.00330498	     47.87022375	     37.58323621	      0.00000000	      0.00000000	     89.96122065	    -23.87952939	      5.79767762	     51.96401130	     77.46510149	      0.00000000	      0.00000000
      4.41500000	     -7.81282494	     -2.72331731	     -2.75257213	     -0.41164773	      0.90271132	     -1.04346598	     56.96643575	      2.95346551	     -8.46457670	      6.48580660	      0.11319868	      1.95597049	      0.00000000	      0.00000000	     47.11451809	     -2.22233573	     -2.20800017	     66.45432038	      1.15984669	     14.47945820	      0.00000000	      0.00000000	     -7.45191753	     -4.25567852	      6.51003692	     89.97021908	     -9.77022898	     15.00762063	     47.63593685	     39.45981251	      0.00000000	      0.00000000	     89.96152311	    -23.83551061	      6.75757998	     52.16121257	     68.25125117	      0.00000000	      0.00000000
      4.42000000	     -7.80216104	     -2.70409988	     -2.82521258	     -0.41189319	      0.90249299	     -1.04341317	     56.84864761	      3.02581734	     -8.39206094	      6.16932974	      0.10767512	      1.52723651	      0.00000000	      0.00000000	     47.13190377	     -2.26106958	     -2.30188279	     66.47252380	      1.16016440	     14.42616255	      0.00000000	      0.00000000	     -7.52037770	     -4.28407347	      6.61682509	     89.97019357	     -9.79597772	     14.90487457	     47.72626175	     39.86917830	      0.00000000	      0.00000000	     89.96149369	    -23.70846210	      6.71557605	     52.39546190	     66.26548616	      0.00000000	      0.00000000
      4.42500000	     -7.84096234	     -2.66895728	     -2.89425456	     -0.41211554	      0.90210588	     -1.04328248	     56.90398969	      3.06759586	     -8.32862216	      6.16802590	      0.10765236	      1.50471629	      0.00000000	      0.00000000	     47.22266048	     -2.26133268	     -2.31465587	     66.55771576	      1.16165128	     14.47926518	      0.00000000	      0.00000000	     -7.49937863	     -4.32873334	      6.69505784	     89.97021352	     -9.81324845	     14.89791490	     47.68435922	     40.19487816	      0.00000000	      0.00000000	     89.96159400	    -23.60670078	      6.72212577	     52.50266641	     64.52157668	      0.00000000	      0.00000000
      4.43000000	     -7.90024126	     -2.70355915	     -2.91528269	     -0.41227763	      0.90164089	     -1.04319026	     57.00285241	      3.10664517	     -8.35601431	      6.24490651	      0.10899418	      1.63880270	      0.00000000	      0.00000000	     47.35014752	     -2.27615399	     -2.22759071	     66.66639273	      1.16354805	     14.58512090	      0.00000000	      0.00000000	     -7.46577341	     -4.27905122	      6.72209621	     89.97020700	     -9.80842830	     14.88812057	     47.65876028	     40.60825346	      0.00000000	      0.00000000	     89.96174187	    -23.58958328	      6.85658554	     52.60416678	     62.53719302	      0.00000000	      0.00000000
      4.43500000	     -7.93929154	     -2.71206910	     -2.92994908	     -0.41244851	      0.90126944	     -1.04311503	     57.00740625	      3.13557018	     -8.33190769	      6.12902995	      0.10697175	      1.51269564	      0.00000000	      0.00000000	     47.44828608	     -2.27877599	     -2.19455564	     66.73108375	      1.16467712	     14.57578713	      0.00000000	      0.00000000	     -7.45896544	     -4.27120133	      6.75871150	     89.97026750	     -9.81584118	     14.85491928	     47.64945908	     40.88007134	      0.00000000	      0.00000000	     89.96179617	    -23.52406221	      6.87722832	     52.74620760	     61.07208020	      0.00000000	      0.00000000
